# xmcd
#
# Track frame offsets: 
#        150
#        16904
#        35854
#        53307
#        75773
#        92756
#        107279
#        121333
#        141151
#        155095
#        171330
#        187929
#        203970
#        216687
#        229018
#        238848
#        254872
#        271723
#
# Disc length: 3838 seconds
#
# Revision: 0
# Processed by: cddbd v1.5.2PL0 Copyright (c) Steve Scherf et al.
# Submitted via: ExactAudioCopy v0.99pb5
#
DISCID=f60efc12
DTITLE=Ocean Colour Scene - The Collection
DYEAR=2007
DGENRE=Britpop
TTITLE0=Sway
TTITLE1=Giving It All Away
TTITLE2=Do Yourself A Favour
TTITLE3=Riverboat Song
TTITLE4=You've Got It Bad
TTITLE5=Day We Caught The Train
TTITLE6=Circle (acoustic)
TTITLE7=Day Tripper (live at the Electric Ballroom)
TTITLE8=Hundred Mile High City
TTITLE9=Chicken Bones and Stones
TTITLE10=Traveller's Tune
TTITLE11=Soul Driver
TTITLE12=Best Bet on Chinaski
TTITLE13=Best Friends and Lovers
TTITLE14=Foxy's Folk Faced
TTITLE15=I Wanna Stay Alive with You
TTITLE16=Robin Hood (live at the Royal Albert Hall)
TTITLE17=Jane She Got Excavated (video live on VH1)
EXTD=
EXTT0=
EXTT1=
EXTT2=
EXTT3=
EXTT4=
EXTT5=
EXTT6=
EXTT7=
EXTT8=
EXTT9=
EXTT10=
EXTT11=
EXTT12=
EXTT13=
EXTT14=
EXTT15=
EXTT16=
EXTT17=
PLAYORDER=
